<svg height="1710" width="720" xmlns="http://www.w3.org/2000/svg">
<rect height="1710" fill="#555" width="720"></rect>
<text fill="#7f7" font-family="Courier New" font-size="12" xml:space="preserve">
<tspan x="10" y="26">30 megabytes installed</tspan>
<tspan x="10" y="42"></tspan>
<tspan x="10" y="58">node_modules</tspan>
<tspan x="10" y="74">└─┬ hyperdrive@8.3.0 </tspan>
<tspan x="10" y="90">  ├─┬ append-tree@2.0.5 </tspan>
<tspan x="10" y="106">  │ ├─┬ brfs@1.4.3 </tspan>
<tspan x="10" y="122">  │ │ ├─┬ quote-stream@1.0.2 </tspan>
<tspan x="10" y="138">  │ │ │ ├── buffer-equal@0.0.1 </tspan>
<tspan x="10" y="154">  │ │ │ └── minimist@1.2.0 </tspan>
<tspan x="10" y="170">  │ │ ├─┬ resolve@1.3.2 </tspan>
<tspan x="10" y="186">  │ │ │ └── path-parse@1.0.5 </tspan>
<tspan x="10" y="202">  │ │ ├─┬ static-module@1.3.1 </tspan>
<tspan x="10" y="218">  │ │ │ ├─┬ concat-stream@1.4.10 </tspan>
<tspan x="10" y="234">  │ │ │ │ ├─┬ readable-stream@1.1.14 </tspan>
<tspan x="10" y="250">  │ │ │ │ │ ├── isarray@0.0.1 </tspan>
<tspan x="10" y="266">  │ │ │ │ │ └── string_decoder@0.10.31 </tspan>
<tspan x="10" y="282">  │ │ │ │ └── typedarray@0.0.6 </tspan>
<tspan x="10" y="298">  │ │ │ ├─┬ duplexer2@0.0.2 </tspan>
<tspan x="10" y="314">  │ │ │ │ └─┬ readable-stream@1.1.14 </tspan>
<tspan x="10" y="330">  │ │ │ │   ├── isarray@0.0.1 </tspan>
<tspan x="10" y="346">  │ │ │ │   └── string_decoder@0.10.31 </tspan>
<tspan x="10" y="362">  │ │ │ ├─┬ escodegen@1.3.3 </tspan>
<tspan x="10" y="378">  │ │ │ │ ├── esprima@1.1.1 </tspan>
<tspan x="10" y="394">  │ │ │ │ ├── estraverse@1.5.1 </tspan>
<tspan x="10" y="410">  │ │ │ │ ├── esutils@1.0.0 </tspan>
<tspan x="10" y="426">  │ │ │ │ └─┬ source-map@0.1.43 </tspan>
<tspan x="10" y="442">  │ │ │ │   └── amdefine@1.0.1 </tspan>
<tspan x="10" y="458">  │ │ │ ├─┬ falafel@1.2.0 </tspan>
<tspan x="10" y="474">  │ │ │ │ ├── acorn@1.2.2 </tspan>
<tspan x="10" y="490">  │ │ │ │ ├── foreach@2.0.5 </tspan>
<tspan x="10" y="506">  │ │ │ │ ├── isarray@0.0.1 </tspan>
<tspan x="10" y="522">  │ │ │ │ └── object-keys@1.0.11 </tspan>
<tspan x="10" y="538">  │ │ │ ├─┬ has@1.0.1 </tspan>
<tspan x="10" y="554">  │ │ │ │ └── function-bind@1.1.0 </tspan>
<tspan x="10" y="570">  │ │ │ ├── object-inspect@0.4.0 </tspan>
<tspan x="10" y="586">  │ │ │ ├─┬ quote-stream@0.0.0 </tspan>
<tspan x="10" y="602">  │ │ │ │ └── minimist@0.0.8 </tspan>
<tspan x="10" y="618">  │ │ │ ├─┬ readable-stream@1.0.34 </tspan>
<tspan x="10" y="634">  │ │ │ │ ├── isarray@0.0.1 </tspan>
<tspan x="10" y="650">  │ │ │ │ └── string_decoder@0.10.31 </tspan>
<tspan x="10" y="666">  │ │ │ ├── shallow-copy@0.0.1 </tspan>
<tspan x="10" y="682">  │ │ │ ├─┬ static-eval@0.2.4 </tspan>
<tspan x="10" y="698">  │ │ │ │ └─┬ escodegen@0.0.28 </tspan>
<tspan x="10" y="714">  │ │ │ │   ├── esprima@1.0.4 </tspan>
<tspan x="10" y="730">  │ │ │ │   └── estraverse@1.3.2 </tspan>
<tspan x="10" y="746">  │ │ │ └─┬ through2@0.4.2 </tspan>
<tspan x="10" y="762">  │ │ │   └─┬ xtend@2.1.2 </tspan>
<tspan x="10" y="778">  │ │ │     └── object-keys@0.4.0 </tspan>
<tspan x="10" y="794">  │ │ └─┬ through2@2.0.3 </tspan>
<tspan x="10" y="810">  │ │   └── xtend@4.0.1 </tspan>
<tspan x="10" y="826">  │ ├── codecs@1.2.0 </tspan>
<tspan x="10" y="842">  │ └── varint@5.0.0 </tspan>
<tspan x="10" y="858">  ├─┬ duplexify@3.5.0 </tspan>
<tspan x="10" y="874">  │ ├── end-of-stream@1.0.0 </tspan>
<tspan x="10" y="890">  │ ├─┬ readable-stream@2.2.9 </tspan>
<tspan x="10" y="906">  │ │ ├── buffer-shims@1.0.0 </tspan>
<tspan x="10" y="922">  │ │ ├── core-util-is@1.0.2 </tspan>
<tspan x="10" y="938">  │ │ ├── isarray@1.0.0 </tspan>
<tspan x="10" y="954">  │ │ ├── process-nextick-args@1.0.7 </tspan>
<tspan x="10" y="970">  │ │ ├── string_decoder@1.0.0 </tspan>
<tspan x="10" y="986">  │ │ └── util-deprecate@1.0.2 </tspan>
<tspan x="10" y="1002">  │ └── stream-shift@1.0.0 </tspan>
<tspan x="10" y="1018">  ├── from2@2.3.0 </tspan>
<tspan x="10" y="1034">  ├─┬ hypercore@5.11.1 </tspan>
<tspan x="10" y="1050">  │ ├── array-lru@1.1.1 </tspan>
<tspan x="10" y="1066">  │ ├── atomic-batcher@1.0.2 </tspan>
<tspan x="10" y="1082">  │ ├─┬ bitfield-rle@2.1.0 </tspan>
<tspan x="10" y="1098">  │ │ └── varint@4.0.1 </tspan>
<tspan x="10" y="1114">  │ ├── buffer-equals@1.0.4 </tspan>
<tspan x="10" y="1130">  │ ├── bulk-write-stream@1.1.3 </tspan>
<tspan x="10" y="1146">  │ ├── flat-tree@1.6.0 </tspan>
<tspan x="10" y="1162">  │ ├── hypercore-protocol@6.3.0 </tspan>
<tspan x="10" y="1178">  │ ├── last-one-wins@1.0.4 </tspan>
<tspan x="10" y="1194">  │ ├── memory-pager@1.0.3 </tspan>
<tspan x="10" y="1210">  │ ├── merkle-tree-stream@3.0.3 </tspan>
<tspan x="10" y="1226">  │ ├─┬ sodium-signatures@2.0.0 </tspan>
<tspan x="10" y="1242">  │ │ └── tweetnacl@0.14.5 </tspan>
<tspan x="10" y="1258">  │ ├─┬ sodium-universal@1.0.0 </tspan>
<tspan x="10" y="1274">  │ │ └─┬ sodium-javascript@0.0.1 </tspan>
<tspan x="10" y="1290">  │ │   └── blakejs@1.0.1 </tspan>
<tspan x="10" y="1306">  │ ├── sparse-bitfield@3.0.3 </tspan>
<tspan x="10" y="1322">  │ ├── uint64be@2.0.1 </tspan>
<tspan x="10" y="1338">  │ ├── unordered-array-remove@1.0.2 </tspan>
<tspan x="10" y="1354">  │ └── unordered-set@2.0.0 </tspan>
<tspan x="10" y="1370">  ├── inherits@2.0.3 </tspan>
<tspan x="10" y="1386">  ├── mutexify@1.1.0 </tspan>
<tspan x="10" y="1402">  ├─┬ protocol-buffers@3.2.1 </tspan>
<tspan x="10" y="1418">  │ ├── generate-function@2.0.0 </tspan>
<tspan x="10" y="1434">  │ ├─┬ generate-object-property@1.2.0 </tspan>
<tspan x="10" y="1450">  │ │ └── is-property@1.0.2 </tspan>
<tspan x="10" y="1466">  │ ├── protocol-buffers-schema@3.3.0 </tspan>
<tspan x="10" y="1482">  │ └── signed-varint@2.0.1 </tspan>
<tspan x="10" y="1498">  ├─┬ random-access-file@1.6.1 </tspan>
<tspan x="10" y="1514">  │ ├── buffer-alloc-unsafe@1.0.0 </tspan>
<tspan x="10" y="1530">  │ ├─┬ debug@2.6.3 </tspan>
<tspan x="10" y="1546">  │ │ └── ms@0.7.2 </tspan>
<tspan x="10" y="1562">  │ └─┬ mkdirp@0.5.1 </tspan>
<tspan x="10" y="1578">  │   └── minimist@0.0.8 </tspan>
<tspan x="10" y="1594">  ├─┬ sodium-native@1.8.0 </tspan>
<tspan x="10" y="1610">  │ ├── nan@2.6.2 </tspan>
<tspan x="10" y="1626">  │ └── node-gyp-build@3.2.0 </tspan>
<tspan x="10" y="1642">  ├─┬ stream-collector@1.0.1 </tspan>
<tspan x="10" y="1658">  │ └─┬ once@1.3.3 </tspan>
<tspan x="10" y="1674">  │   └── wrappy@1.0.2 </tspan>
<tspan x="10" y="1690">  └── thunky@1.0.2</tspan>
</text>
</svg>
